<svg width="1303" height="854" viewBox="0 0 1303 854" fill="none" xmlns="http://www.w3.org/2000/svg">
<path d="M1224.5 202C1224.5 518.736 967.959 775.5 651.5 775.5C335.041 775.5 78.5 518.736 78.5 202C78.5 -114.736 335.041 -371.5 651.5 -371.5C967.959 -371.5 1224.5 -114.736 1224.5 202Z" stroke="white"/>
<circle cx="651.5" cy="201.5" r="490" stroke="white"/>
<path d="M1302.5 202C1302.5 561.814 1011.04 853.5 651.5 853.5C291.963 853.5 0.5 561.814 0.5 202C0.5 -157.814 291.963 -449.5 651.5 -449.5C1011.04 -449.5 1302.5 -157.814 1302.5 202Z" stroke="white"/>
<circle cx="651.5" cy="186.5" r="302.533" stroke="white"/>
<path d="M1053.5 186.809C1053.5 408.998 873.518 589.118 651.5 589.118C429.482 589.118 249.5 408.998 249.5 186.809C249.5 -35.3805 429.482 -215.5 651.5 -215.5C873.518 -215.5 1053.5 -35.3805 1053.5 186.809Z" stroke="white"/>
</svg>
